# xmcd
# 
# Track frame offsets:
#     150
#     62185
#     131474
#     195410
# 
# Disc length: 3291
# 
# Revision: 0
# Processed by: cddbd v1.5.2PL0 Copyright (c) Steve Scherf et al.
# Submitted via: BonkEnc v1.0.8
# 
DISCID=310cd904
DTITLE=Ursula von Langen - Mondbär - Das grosse Abenteuer
DYEAR=0
DGENRE=Other
TTITLE0=Kapitel 1
TTITLE1=Kapitel 2
TTITLE2=Kapitel 3
TTITLE3=Kapitel 4
EXTD=
EXTT0=
EXTT1=
EXTT2=
EXTT3=
PLAYORDER=
